<?xml version="1.0" encoding="utf-8"?>
<!-- Generator: Adobe Illustrator 23.1.0, SVG Export Plug-In . SVG Version: 6.00 Build 0)  -->
<svg version="1.1" id="Layer_1" xmlns="http://www.w3.org/2000/svg" xmlns:xlink="http://www.w3.org/1999/xlink" x="0px" y="0px"
	 viewBox="0 0 200 200" style="enable-background:new 0 0 200 200;" xml:space="preserve">
<style type="text/css">
	.st0{fill:#231F20;}
	.st1{opacity:0.5;}
	.st2{fill:#383535;}
	.st3{fill:url(#SVGID_1_);}
	.st4{fill:url(#SVGID_2_);}
	.st5{fill:#010101;}
</style>
<g>
	<ellipse class="st0" cx="91" cy="109.92" rx="68.85" ry="68.85"/>
	<g class="st1">
		<path class="st2" d="M147.59,109.92c0,31.25-25.34,56.59-56.59,56.59s-56.59-25.34-56.59-56.59c0-31.26,25.34-56.59,56.59-56.59
			C122.25,53.33,147.59,78.67,147.59,109.92z"/>
	</g>
	
		<linearGradient id="SVGID_1_" gradientUnits="userSpaceOnUse" x1="-2287.2856" y1="-1725.4885" x2="-2287.2856" y2="-1610.0985" gradientTransform="matrix(0 -1 -1 0 -1576.8025 -2177.3535)">
		<stop  offset="0" style="stop-color:#F3F5F7"/>
		<stop  offset="1" style="stop-color:#FFFFFF"/>
	</linearGradient>
	<path class="st3" d="M91,52.23c31.86,0,57.69,25.83,57.69,57.7c0,31.86-25.83,57.7-57.69,57.7c-31.87,0-57.7-25.83-57.7-57.7
		C33.3,78.06,59.13,52.23,91,52.23z"/>
	
		<linearGradient id="SVGID_2_" gradientUnits="userSpaceOnUse" x1="90.9861" y1="36.5578" x2="90.9861" y2="147.5978" gradientTransform="matrix(1 0 0 -1 0 202)">
		<stop  offset="0" style="stop-color:#F3F5F7"/>
		<stop  offset="1" style="stop-color:#FFFFFF"/>
	</linearGradient>
	<path class="st4" d="M146.51,109.92c0,30.66-24.86,55.52-55.52,55.52s-55.52-24.86-55.52-55.52S60.33,54.4,90.99,54.4
		C121.66,54.4,146.51,79.26,146.51,109.92z"/>
</g>
<path class="st0" d="M34.08,54.29c0.34,0,0.69-0.13,0.95-0.39l0.09-0.09c0.52-0.52,0.53-1.37,0-1.9c-0.52-0.52-1.37-0.53-1.9,0
	L33.13,52c-0.52,0.52-0.53,1.37,0,1.9C33.39,54.16,33.74,54.29,34.08,54.29z"/>
<path class="st0" d="M40.16,48.81c0.3,0,0.6-0.1,0.85-0.3l0.1-0.08c0.58-0.47,0.66-1.31,0.19-1.89c-0.47-0.58-1.31-0.66-1.89-0.19
	l-0.11,0.09c-0.57,0.47-0.66,1.31-0.19,1.89C39.38,48.64,39.77,48.81,40.16,48.81z"/>
<path class="st0" d="M23,66.73c0.23,0.15,0.48,0.22,0.74,0.22c0.44,0,0.86-0.21,1.12-0.6l0.07-0.11c0.41-0.62,0.24-1.45-0.38-1.86
	c-0.62-0.41-1.45-0.24-1.86,0.38l-0.07,0.11C22.21,65.49,22.38,66.33,23,66.73z"/>
<path class="st0" d="M27.74,60.06c0.25,0.2,0.55,0.3,0.85,0.3c0.39,0,0.78-0.17,1.04-0.49l0.08-0.1c0.47-0.57,0.39-1.42-0.19-1.89
	c-0.57-0.47-1.42-0.39-1.89,0.19l-0.09,0.11C27.08,58.75,27.17,59.59,27.74,60.06z"/>
<path class="st0" d="M85.08,30.95c0.03,0,0.06,0,0.1,0l0.13-0.01c0.74-0.05,1.3-0.69,1.24-1.43c-0.05-0.74-0.69-1.3-1.43-1.24
	l-0.14,0.01c-0.74,0.05-1.3,0.7-1.24,1.44C83.8,30.41,84.39,30.95,85.08,30.95z"/>
<path class="st0" d="M76.96,31.95c0.08,0,0.16-0.01,0.23-0.02l0.13-0.02c0.73-0.13,1.22-0.82,1.09-1.55
	c-0.13-0.73-0.82-1.22-1.55-1.09l-0.13,0.02c-0.73,0.13-1.22,0.82-1.09,1.55C75.76,31.5,76.32,31.95,76.96,31.95z"/>
<path class="st0" d="M46.75,43.97c0.25,0,0.51-0.07,0.74-0.22l0.11-0.07c0.62-0.41,0.79-1.24,0.38-1.86s-1.24-0.79-1.86-0.38
	l-0.11,0.07c-0.62,0.41-0.79,1.24-0.38,1.86C45.89,43.76,46.32,43.97,46.75,43.97z"/>
<path class="st0" d="M15.67,81.35c0.16,0.07,0.33,0.1,0.5,0.1c0.53,0,1.04-0.32,1.25-0.84l0.05-0.12c0.28-0.69-0.06-1.47-0.75-1.75
	c-0.69-0.28-1.47,0.06-1.75,0.75l-0.05,0.13C14.65,80.29,14.98,81.07,15.67,81.35z"/>
<path class="st0" d="M53.81,39.82c0.21,0,0.42-0.05,0.62-0.15l0.11-0.06c0.66-0.34,0.92-1.15,0.57-1.81
	c-0.34-0.66-1.15-0.92-1.81-0.57l-0.12,0.06c-0.66,0.34-0.91,1.15-0.57,1.81C52.85,39.56,53.32,39.82,53.81,39.82z"/>
<path class="st0" d="M68.99,33.78c0.12,0,0.24-0.02,0.37-0.05l0.13-0.04c0.71-0.2,1.13-0.94,0.93-1.66
	c-0.2-0.71-0.94-1.13-1.66-0.93l-0.13,0.04c-0.71,0.2-1.13,0.94-0.93,1.66C67.86,33.39,68.4,33.78,68.99,33.78z"/>
<path class="st0" d="M61.24,36.41c0.17,0,0.33-0.03,0.5-0.1l0.12-0.05c0.69-0.27,1.03-1.05,0.75-1.74
	c-0.27-0.69-1.05-1.03-1.74-0.75l-0.13,0.05c-0.69,0.27-1.03,1.05-0.75,1.74C60.2,36.09,60.71,36.41,61.24,36.41z"/>
<path class="st0" d="M13.16,89.14c0.12,0.03,0.25,0.05,0.37,0.05c0.58,0,1.12-0.39,1.29-0.98l0.04-0.13
	c0.2-0.71-0.21-1.46-0.92-1.66c-0.71-0.2-1.46,0.21-1.66,0.92l-0.04,0.13C12.04,88.2,12.45,88.94,13.16,89.14z"/>
<path class="st0" d="M11.46,97.15c0.08,0.01,0.16,0.02,0.24,0.02c0.64,0,1.2-0.46,1.32-1.11l0.02-0.13
	c0.13-0.73-0.36-1.43-1.09-1.56c-0.73-0.13-1.43,0.36-1.56,1.09l-0.02,0.13C10.25,96.32,10.73,97.02,11.46,97.15z"/>
<path class="st0" d="M18.96,73.85c0.2,0.1,0.41,0.15,0.62,0.15c0.48,0,0.95-0.26,1.19-0.72l0.06-0.12c0.34-0.66,0.09-1.47-0.57-1.81
	s-1.47-0.09-1.81,0.56l-0.06,0.12C18.05,72.7,18.31,73.51,18.96,73.85z"/>
<path class="st0" d="M17.42,139.25c-0.27-0.69-1.06-1.02-1.74-0.75c-0.69,0.27-1.02,1.06-0.75,1.74l0.05,0.13
	c0.21,0.53,0.71,0.84,1.25,0.84c0.17,0,0.33-0.03,0.5-0.1c0.69-0.28,1.02-1.06,0.75-1.74L17.42,139.25z"/>
<path class="st0" d="M14.86,131.76l-0.04-0.13c-0.2-0.71-0.94-1.13-1.66-0.92c-0.71,0.2-1.13,0.95-0.92,1.66l0.04,0.13
	c0.17,0.59,0.71,0.97,1.29,0.97c0.12,0,0.25-0.02,0.37-0.05C14.65,133.22,15.06,132.47,14.86,131.76z"/>
<path class="st0" d="M13.04,123.92l-0.02-0.13c-0.13-0.73-0.83-1.22-1.56-1.09c-0.73,0.13-1.22,0.83-1.09,1.56l0.02,0.14
	c0.12,0.65,0.68,1.11,1.32,1.11c0.08,0,0.16-0.01,0.24-0.02C12.69,125.35,13.17,124.65,13.04,123.92z"/>
<path class="st0" d="M20.84,146.68l-0.06-0.12c-0.34-0.66-1.15-0.91-1.81-0.57s-0.91,1.15-0.57,1.81l0.06,0.12
	c0.24,0.46,0.71,0.72,1.19,0.72c0.21,0,0.42-0.05,0.62-0.15C20.93,148.15,21.19,147.34,20.84,146.68z"/>
<path class="st0" d="M171.52,106.54c-1.87,0-3.38,1.52-3.38,3.38s1.52,3.38,3.38,3.38c1.87,0,3.38-1.52,3.38-3.38
	S173.39,106.54,171.52,106.54z"/>
<path class="st0" d="M13.85,109.92c0-1.87-1.52-3.38-3.38-3.38c-1.87,0-3.38,1.52-3.38,3.38c0,1.87,1.52,3.38,3.38,3.38
	C12.34,113.31,13.85,111.79,13.85,109.92z"/>
<path class="st0" d="M17.46,109.92c0-3.85-3.13-6.99-6.99-6.99s-6.99,3.13-6.99,6.99c0,3.85,3.13,6.99,6.99,6.99
	S17.46,113.78,17.46,109.92z M5.49,109.92c0-2.74,2.23-4.97,4.97-4.97s4.97,2.23,4.97,4.97s-2.23,4.97-4.97,4.97
	C7.73,114.9,5.49,112.66,5.49,109.92z"/>
<path class="st0" d="M201.03,108.74h-22.62c-0.52-3.06-3.05-5.45-6.17-5.77c-1.7-20.14-10.78-38.81-25.62-52.67
	C131.47,36.17,111.72,28.39,91,28.39v2.01c41.12,0,75.73,31.84,79.23,72.66c-3.23,0.61-5.69,3.46-5.69,6.86
	c0,3.41,2.45,6.25,5.69,6.86c-1,11.69-4.48,22.75-10.35,32.91l0,0c-14.19,24.52-40.58,39.75-68.88,39.75
	c-28.29,0-54.69-15.23-68.88-39.75l-1.74,1.01c7.04,12.17,17.17,22.37,29.28,29.51c12.48,7.35,26.77,11.24,41.34,11.24
	s28.86-3.89,41.34-11.24c12.11-7.14,22.24-17.34,29.28-29.51l0,0c6.04-10.44,9.61-21.81,10.62-33.83c3.25-0.33,5.84-2.89,6.22-6.12
	h22.57V108.74z M171.52,114.9c-2.74,0-4.97-2.23-4.97-4.97s2.23-4.97,4.97-4.97s4.97,2.23,4.97,4.97S174.27,114.9,171.52,114.9z"/>
<g id="_x37__1_">
	<path class="st5" d="M93.64,99.23h1.63v13.14c0,0.31,0.25,0.56,0.56,0.56h2.74c0.31,0,0.56-0.25,0.56-0.56V99.23h1.63
		c0.22,0,0.42-0.13,0.51-0.33c0.09-0.2,0.06-0.44-0.09-0.6l-3.56-4.13c-0.11-0.12-0.26-0.2-0.43-0.2c-0.16,0-0.32,0.07-0.43,0.2
		L93.2,98.3c-0.14,0.17-0.18,0.4-0.09,0.6C93.22,99.1,93.42,99.23,93.64,99.23z M97.2,95.4l2.33,2.7h-0.96
		c-0.31,0-0.56,0.25-0.56,0.56v13.14H96.4V98.66c0-0.31-0.25-0.56-0.56-0.56h-0.96L97.2,95.4z"/>
	<path class="st5" d="M89.5,100.91c-0.31,0-0.56,0.25-0.56,0.56v10.89c0,0.31,0.25,0.56,0.56,0.56h2.63c0.31,0,0.56-0.25,0.56-0.56
		v-10.88c0-0.31-0.25-0.56-0.56-0.56H89.5V100.91z M91.56,111.8h-1.5v-9.76h1.5V111.8z"/>
	<path class="st5" d="M83.12,112.93h2.63c0.31,0,0.56-0.25,0.56-0.56v-8.26c0-0.31-0.25-0.56-0.56-0.56h-2.63
		c-0.31,0-0.56,0.25-0.56,0.56v8.26C82.56,112.67,82.81,112.93,83.12,112.93z M83.68,104.67h1.5v7.13h-1.5V104.67z"/>
	<path class="st5" d="M104.8,97.91h-2.06c-0.31,0-0.56,0.25-0.56,0.56s0.25,0.56,0.56,0.56h2.06c0.36,0,0.66,0.29,0.66,0.66v14.73
		h-28.9V99.69c0-0.36,0.29-0.66,0.66-0.66h14.45c0.31,0,0.56-0.25,0.56-0.56s-0.25-0.56-0.56-0.56H77.21c-0.98,0-1.78,0.8-1.78,1.78
		v18.58c0,0.98,0.8,1.78,1.78,1.78h9.84c-0.07,1.8-0.44,2.29-0.49,2.35c-0.04,0.03-0.06,0.06-0.09,0.09H85
		c-1.55,0-2.82,1.26-2.82,2.82c0,0.31,0.25,0.56,0.56,0.56h16.52c0.31,0,0.56-0.25,0.56-0.56c0-1.55-1.26-2.82-2.82-2.82h-1.47
		c-0.03-0.03-0.06-0.07-0.09-0.09c-0.05-0.06-0.43-0.55-0.49-2.35h9.84c0.98,0,1.78-0.8,1.78-1.78V99.69
		C106.58,98.71,105.78,97.91,104.8,97.91z M98.6,124.75H83.4c0.23-0.66,0.86-1.13,1.59-1.13H97
		C97.74,123.62,98.37,124.09,98.6,124.75z M94.22,122.5h-6.44c0.19-0.5,0.36-1.26,0.4-2.44h5.65C93.87,121.23,94.03,122,94.22,122.5
		z M104.8,118.93H77.21c-0.36,0-0.66-0.29-0.66-0.66v-2.72h28.9v2.72C105.45,118.64,105.16,118.93,104.8,118.93z"/>
	<path class="st5" d="M83.21,100.73c0-0.31-0.25-0.56-0.56-0.56h-3.82c-0.64,0-1.16,0.52-1.16,1.16v11.73
		c0,0.31,0.25,0.56,0.56,0.56s0.56-0.25,0.56-0.56v-11.74c0-0.02,0.01-0.03,0.03-0.03h3.82C82.96,101.29,83.21,101.04,83.21,100.73z
		"/>
	<path class="st5" d="M91,116.49c-0.41,0-0.75,0.34-0.75,0.75s0.34,0.75,0.75,0.75s0.75-0.34,0.75-0.75
		C91.75,116.83,91.42,116.49,91,116.49z"/>
</g>
</svg>
