<?xml version="1.0" encoding="utf-8"?>
<!-- Generator: Adobe Illustrator 23.1.0, SVG Export Plug-In . SVG Version: 6.00 Build 0)  -->
<svg version="1.1" id="Layer_1" xmlns="http://www.w3.org/2000/svg" xmlns:xlink="http://www.w3.org/1999/xlink" x="0px" y="0px"
	 viewBox="0 0 200 200" style="enable-background:new 0 0 200 200;" xml:space="preserve">
<style type="text/css">
	.st0{fill:#231F20;}
	.st1{opacity:0.5;}
	.st2{fill:#383535;}
	.st3{fill:url(#SVGID_1_);}
	.st4{fill:url(#SVGID_2_);}
	.st5{fill:url(#SVGID_3_);}
	.st6{fill:url(#SVGID_4_);}
	.st7{fill:url(#SVGID_5_);}
	.st8{fill:url(#SVGID_6_);}
	.st9{fill:#010101;}
</style>
<g>
	<g>
		
			<ellipse transform="matrix(0.9871 -0.1602 0.1602 0.9871 -15.5658 15.487)" class="st0" cx="88.28" cy="104.29" rx="68.85" ry="68.85"/>
		<g class="st1">
			<path class="st2" d="M144.87,104.29c0,31.25-25.34,56.59-56.59,56.59c-31.25,0-56.59-25.34-56.59-56.59
				c0-31.26,25.34-56.59,56.59-56.59C119.53,47.7,144.87,73.04,144.87,104.29z"/>
		</g>
		
			<linearGradient id="SVGID_1_" gradientUnits="userSpaceOnUse" x1="-1463.645" y1="1924.7753" x2="-1463.645" y2="1809.3833" gradientTransform="matrix(0 -1 1 0 -1778.8025 -1359.3535)">
			<stop  offset="0" style="stop-color:#F3F5F7"/>
			<stop  offset="1" style="stop-color:#FFFFFF"/>
		</linearGradient>
		<path class="st3" d="M88.28,46.6c31.86,0,57.69,25.83,57.69,57.7c0,31.86-25.83,57.7-57.69,57.7c-31.87,0-57.7-25.83-57.7-57.7
			C30.58,72.43,56.41,46.6,88.28,46.6z"/>
		<linearGradient id="SVGID_2_" gradientUnits="userSpaceOnUse" x1="88.2768" y1="159.8098" x2="88.2768" y2="48.7731">
			<stop  offset="0" style="stop-color:#F3F5F7"/>
			<stop  offset="1" style="stop-color:#FFFFFF"/>
		</linearGradient>
		<path class="st4" d="M143.79,104.29c0,30.66-24.86,55.52-55.52,55.52c-30.66,0-55.52-24.86-55.52-55.52
			c0-30.66,24.86-55.52,55.52-55.52C118.94,48.77,143.79,73.63,143.79,104.29z"/>
	</g>
	<g>
		<path class="st0" d="M31.36,48.66c0.34,0,0.69-0.13,0.95-0.39l0.09-0.09c0.52-0.52,0.53-1.37,0-1.9c-0.52-0.52-1.37-0.53-1.9,0
			l-0.09,0.09c-0.52,0.52-0.53,1.37,0,1.9C30.67,48.53,31.02,48.66,31.36,48.66z"/>
		<path class="st0" d="M37.44,43.18c0.3,0,0.6-0.1,0.85-0.3l0.1-0.08c0.58-0.47,0.66-1.31,0.19-1.89c-0.47-0.58-1.31-0.66-1.89-0.19
			l-0.11,0.09c-0.57,0.47-0.66,1.31-0.19,1.89C36.66,43.01,37.05,43.18,37.44,43.18z"/>
		<path class="st0" d="M20.28,61.1c0.23,0.15,0.48,0.22,0.74,0.22c0.44,0,0.86-0.21,1.12-0.6l0.07-0.11
			c0.41-0.62,0.24-1.45-0.38-1.86c-0.62-0.41-1.45-0.24-1.86,0.38l-0.07,0.11C19.49,59.86,19.66,60.7,20.28,61.1z"/>
		<path class="st0" d="M25.02,54.43c0.25,0.2,0.55,0.3,0.85,0.3c0.39,0,0.78-0.17,1.04-0.49l0.08-0.1c0.47-0.57,0.39-1.42-0.19-1.89
			c-0.57-0.47-1.42-0.39-1.89,0.19l-0.09,0.11C24.36,53.12,24.45,53.96,25.02,54.43z"/>
		<path class="st0" d="M82.36,25.32c0.03,0,0.06,0,0.1,0l0.13-0.01c0.74-0.05,1.3-0.69,1.24-1.43c-0.05-0.74-0.69-1.3-1.43-1.24
			l-0.14,0.01c-0.74,0.05-1.3,0.7-1.24,1.44C81.08,24.78,81.67,25.32,82.36,25.32z"/>
		<path class="st0" d="M74.24,26.32c0.08,0,0.16-0.01,0.23-0.02l0.13-0.02c0.73-0.13,1.22-0.82,1.09-1.55
			c-0.13-0.73-0.82-1.22-1.55-1.09l-0.13,0.02c-0.73,0.13-1.22,0.82-1.09,1.55C73.04,25.87,73.6,26.32,74.24,26.32z"/>
		<path class="st0" d="M44.03,38.34c0.25,0,0.51-0.07,0.74-0.22l0.11-0.07c0.62-0.41,0.79-1.24,0.38-1.86
			c-0.41-0.62-1.24-0.79-1.86-0.38l-0.11,0.07c-0.62,0.41-0.79,1.24-0.38,1.86C43.17,38.13,43.6,38.34,44.03,38.34z"/>
		<path class="st0" d="M12.95,75.72c0.16,0.07,0.33,0.1,0.5,0.1c0.53,0,1.04-0.32,1.25-0.84l0.05-0.12
			c0.28-0.69-0.06-1.47-0.75-1.75c-0.69-0.28-1.47,0.06-1.75,0.75l-0.05,0.13C11.93,74.66,12.26,75.44,12.95,75.72z"/>
		<path class="st0" d="M51.09,34.19c0.21,0,0.42-0.05,0.62-0.15l0.11-0.06c0.66-0.34,0.92-1.15,0.57-1.81
			c-0.34-0.66-1.15-0.92-1.81-0.57l-0.12,0.06c-0.66,0.34-0.91,1.15-0.57,1.81C50.13,33.93,50.6,34.19,51.09,34.19z"/>
		<path class="st0" d="M66.27,28.15c0.12,0,0.24-0.02,0.37-0.05l0.13-0.04c0.71-0.2,1.13-0.94,0.93-1.66
			c-0.2-0.71-0.94-1.13-1.66-0.93l-0.13,0.04c-0.71,0.2-1.13,0.94-0.93,1.66C65.14,27.76,65.68,28.15,66.27,28.15z"/>
		<path class="st0" d="M58.52,30.78c0.17,0,0.33-0.03,0.5-0.1l0.12-0.05c0.69-0.27,1.03-1.05,0.75-1.74
			c-0.27-0.69-1.05-1.03-1.74-0.75l-0.13,0.05c-0.69,0.27-1.03,1.05-0.75,1.74C57.48,30.46,57.99,30.78,58.52,30.78z"/>
		<path class="st0" d="M10.44,83.51c0.12,0.03,0.25,0.05,0.37,0.05c0.58,0,1.12-0.39,1.29-0.98l0.04-0.13
			c0.2-0.71-0.21-1.46-0.92-1.66c-0.71-0.2-1.46,0.21-1.66,0.92l-0.04,0.13C9.32,82.57,9.73,83.31,10.44,83.51z"/>
		<path class="st0" d="M8.74,91.52c0.08,0.01,0.16,0.02,0.24,0.02c0.64,0,1.2-0.46,1.32-1.11l0.02-0.13
			c0.13-0.73-0.36-1.43-1.09-1.56c-0.73-0.13-1.43,0.36-1.56,1.09l-0.02,0.13C7.53,90.69,8.01,91.39,8.74,91.52z"/>
		<path class="st0" d="M16.24,68.22c0.2,0.1,0.41,0.15,0.62,0.15c0.48,0,0.95-0.26,1.19-0.72l0.06-0.12
			c0.34-0.66,0.09-1.47-0.57-1.81c-0.66-0.34-1.47-0.09-1.81,0.56l-0.06,0.12C15.33,67.07,15.59,67.88,16.24,68.22z"/>
		<path class="st0" d="M14.7,133.62c-0.27-0.69-1.06-1.02-1.74-0.75c-0.69,0.27-1.02,1.06-0.75,1.74l0.05,0.13
			c0.21,0.53,0.71,0.84,1.25,0.84c0.17,0,0.33-0.03,0.5-0.1c0.69-0.28,1.02-1.06,0.75-1.74L14.7,133.62z"/>
		<path class="st0" d="M12.14,126.13L12.1,126c-0.2-0.71-0.94-1.13-1.66-0.92c-0.71,0.2-1.13,0.95-0.92,1.66l0.04,0.13
			c0.17,0.59,0.71,0.97,1.29,0.97c0.12,0,0.25-0.02,0.37-0.05C11.93,127.59,12.34,126.84,12.14,126.13z"/>
		<path class="st0" d="M10.32,118.29l-0.02-0.13c-0.13-0.73-0.83-1.22-1.56-1.09c-0.73,0.13-1.22,0.83-1.09,1.56l0.02,0.14
			c0.12,0.65,0.68,1.11,1.32,1.11c0.08,0,0.16-0.01,0.24-0.02C9.97,119.72,10.45,119.02,10.32,118.29z"/>
		<path class="st0" d="M18.12,141.05l-0.06-0.12c-0.34-0.66-1.15-0.91-1.81-0.57c-0.66,0.34-0.91,1.15-0.57,1.81l0.06,0.12
			c0.24,0.46,0.71,0.72,1.19,0.72c0.21,0,0.42-0.05,0.62-0.15C18.21,142.52,18.47,141.71,18.12,141.05z"/>
		<path class="st0" d="M168.8,100.91c-1.87,0-3.38,1.52-3.38,3.38s1.52,3.38,3.38,3.38c1.87,0,3.38-1.52,3.38-3.38
			S170.67,100.91,168.8,100.91z"/>
		<path class="st0" d="M11.13,104.29c0-1.87-1.52-3.38-3.38-3.38c-1.87,0-3.38,1.52-3.38,3.38c0,1.87,1.52,3.38,3.38,3.38
			C9.62,107.68,11.13,106.16,11.13,104.29z"/>
		<path class="st0" d="M14.74,104.29c0-3.85-3.13-6.99-6.99-6.99s-6.99,3.13-6.99,6.99c0,3.85,3.13,6.99,6.99,6.99
			S14.74,108.15,14.74,104.29z M2.77,104.29c0-2.74,2.23-4.97,4.97-4.97c2.74,0,4.97,2.23,4.97,4.97c0,2.74-2.23,4.97-4.97,4.97
			C5.01,109.27,2.77,107.03,2.77,104.29z"/>
		<path class="st0" d="M198.31,103.11h-22.62c-0.52-3.06-3.05-5.45-6.17-5.77c-1.7-20.14-10.78-38.81-25.62-52.67
			C128.75,30.54,109,22.76,88.28,22.76v2.01c41.12,0,75.73,31.84,79.23,72.66c-3.23,0.61-5.69,3.46-5.69,6.86
			c0,3.41,2.45,6.25,5.69,6.86c-1,11.69-4.48,22.75-10.35,32.91l0,0c-14.19,24.52-40.58,39.75-68.88,39.75
			c-28.29,0-54.69-15.23-68.88-39.75l-1.74,1.01c7.04,12.17,17.17,22.37,29.28,29.51c12.48,7.35,26.77,11.24,41.34,11.24
			c14.57,0,28.86-3.89,41.34-11.24c12.11-7.14,22.24-17.34,29.28-29.51h0c6.04-10.44,9.61-21.81,10.62-33.83
			c3.25-0.33,5.84-2.89,6.22-6.12h22.57V103.11z M168.8,109.27c-2.74,0-4.97-2.23-4.97-4.97s2.23-4.97,4.97-4.97
			c2.74,0,4.97,2.23,4.97,4.97S171.55,109.27,168.8,109.27z"/>
	</g>
</g>
<g id="_x31_7_1_">
	<path class="st9" d="M86.98,96.11l-0.42,2.47c-0.04,0.23,0.05,0.46,0.24,0.59c0.11,0.08,0.23,0.12,0.36,0.12
		c0.1,0,0.19-0.02,0.28-0.07l2.21-1.16l2.21,1.16c0.2,0.11,0.45,0.09,0.64-0.05c0.19-0.14,0.28-0.37,0.24-0.59l-0.42-2.47l1.79-1.75
		c0.17-0.16,0.22-0.4,0.15-0.62c-0.07-0.22-0.26-0.38-0.49-0.41l-2.47-0.36l-1.11-2.24c-0.1-0.21-0.31-0.34-0.54-0.34
		c-0.23,0-0.44,0.13-0.54,0.34L88,92.97l-2.47,0.36c-0.23,0.03-0.42,0.19-0.49,0.41c-0.07,0.22-0.01,0.46,0.15,0.62L86.98,96.11z
		 M88.49,94.13c0.2-0.03,0.37-0.15,0.46-0.33l0.7-1.43l0.7,1.43c0.09,0.18,0.26,0.3,0.46,0.33l1.58,0.23l-1.14,1.11
		c-0.14,0.14-0.21,0.34-0.17,0.54l0.27,1.57l-1.41-0.74c-0.09-0.05-0.18-0.07-0.28-0.07c-0.1,0-0.19,0.02-0.28,0.07l-1.41,0.74
		L88.23,96c0.03-0.2-0.03-0.4-0.17-0.54l-1.14-1.11L88.49,94.13z"/>
	<path class="st9" d="M103.62,92.65h-5.18c-0.33,0-0.61,0.27-0.61,0.61c0,0.33,0.27,0.61,0.61,0.61h4.58v17.12h-10.5v-1.3h3.84
		c0.33,0,0.61-0.27,0.61-0.61V88.82c0-0.33-0.27-0.61-0.61-0.61H82.62c-0.33,0-0.61,0.27-0.61,0.61v20.26
		c0,0.33,0.27,0.61,0.61,0.61h3.84v1.3h-10.5V93.86h4.58c0.33,0,0.61-0.27,0.61-0.61c0-0.33-0.27-0.61-0.61-0.61h-5.18
		c-0.33,0-0.61,0.27-0.61,0.61v18.33c0,0.33,0.27,0.61,0.61,0.61h11.71c0.33,0,0.61-0.27,0.61-0.61v-1.91h3.63v1.91
		c0,0.33,0.27,0.61,0.61,0.61h11.71c0.33,0,0.61-0.27,0.61-0.61V93.26C104.23,92.92,103.96,92.65,103.62,92.65z M83.23,89.42h12.52
		v19.05H83.23V89.42z"/>
	<path class="st9" d="M93.73,101.2h-8.48c-0.33,0-0.61,0.27-0.61,0.61c0,0.33,0.27,0.61,0.61,0.61h8.48c0.33,0,0.61-0.27,0.61-0.61
		C94.33,101.47,94.06,101.2,93.73,101.2z"/>
	<path class="st9" d="M92.52,104.03h-6.06c-0.33,0-0.61,0.27-0.61,0.61c0,0.33,0.27,0.61,0.61,0.61h6.06c0.33,0,0.61-0.27,0.61-0.61
		C93.12,104.3,92.85,104.03,92.52,104.03z"/>
	<path class="st9" d="M98.58,97.57H101c0.33,0,0.61-0.27,0.61-0.61c0-0.33-0.27-0.61-0.61-0.61h-2.42c-0.33,0-0.61,0.27-0.61,0.61
		C97.97,97.29,98.24,97.57,98.58,97.57z"/>
	<path class="st9" d="M80.4,96.35h-2.42c-0.33,0-0.61,0.27-0.61,0.61c0,0.33,0.27,0.61,0.61,0.61h2.42c0.33,0,0.61-0.27,0.61-0.61
		C81.01,96.63,80.74,96.35,80.4,96.35z"/>
	<path class="st9" d="M98.58,99.99H101c0.33,0,0.61-0.27,0.61-0.61c0-0.33-0.27-0.61-0.61-0.61h-2.42c-0.33,0-0.61,0.27-0.61,0.61
		C97.97,99.72,98.24,99.99,98.58,99.99z"/>
	<path class="st9" d="M80.4,98.78h-2.42c-0.33,0-0.61,0.27-0.61,0.61c0,0.33,0.27,0.61,0.61,0.61h2.42c0.33,0,0.61-0.27,0.61-0.61
		C81.01,99.05,80.74,98.78,80.4,98.78z"/>
	<path class="st9" d="M102.62,114.81c-0.85-1.26-2.56-1.6-3.83-0.76l-3.38,2.29c-0.11-0.38-0.32-0.72-0.63-0.98
		c-0.44-0.38-1.03-0.58-1.6-0.53l-3.8,0.28c-0.11,0.01-0.22-0.04-0.3-0.13c-1.38-1.73-3.74-2.27-5.74-1.34
		c-0.02,0.01-0.04,0.02-0.05,0.03l-10.68,6.37c-0.29,0.17-0.38,0.54-0.21,0.83c0.11,0.19,0.31,0.3,0.52,0.3
		c0.11,0,0.21-0.03,0.31-0.09l10.65-6.35c1.49-0.68,3.23-0.27,4.25,1.01c0.32,0.4,0.82,0.62,1.33,0.58l3.8-0.28
		c0.26-0.02,0.52,0.07,0.72,0.24c0.18,0.15,0.28,0.36,0.3,0.61c0.02,0.46-0.38,0.87-0.88,0.91l-4.51,0.33
		c-0.33,0.02-0.58,0.31-0.56,0.65c0.02,0.33,0.32,0.59,0.65,0.56L93.5,119c0.74-0.05,1.37-0.47,1.72-1.05l4.26-2.89
		c0.34-0.23,0.76-0.31,1.16-0.23c0.27,0.05,0.51,0.17,0.71,0.35l-6.42,4.96c-0.23,0.15-0.49,0.26-0.77,0.31l-4.78,0.87
		c-0.52,0.09-1.05-0.01-1.49-0.29l-2.05-1.29c-0.73-0.46-1.65-0.55-2.45-0.22c-0.06,0.02-0.11,0.06-0.16,0.1l-3.01,2.5
		c-0.26,0.21-0.29,0.6-0.08,0.85c0.12,0.14,0.29,0.22,0.47,0.22c0.14,0,0.27-0.05,0.39-0.14l2.93-2.43
		c0.42-0.14,0.89-0.09,1.27,0.15l2.05,1.29c0.7,0.44,1.54,0.6,2.35,0.46l4.78-0.87c0.45-0.08,0.86-0.25,1.24-0.5
		c0.01-0.01,0.02-0.02,0.03-0.02l6.93-5.35c0.25-0.19,0.31-0.55,0.13-0.82L102.62,114.81z"/>
</g>
</svg>
